PathFileType	4	(X/Y/Z)	Kaydara	
DataRate	CameraRate	NumFrames	NumMarkers	Units	OrigDataRate	OrigDataStartFrame	OrigNumFrames	
60.00	60.00	4	74	mm	60.00	764	195	
Frame#	Time	Y_rasi			Y_rpsi			Y_lpsi			Y_fneck			Y_bneck			Y_fhead			Y_rhead			Y_rshld			Y_relbtop			Y_relbext			Y_relblow			Y_rwrext			Y_rwrtop			Y_rwrlow			Y_lshld			Y_lelbext			Y_lelblow			Y_lelbtop			Y_lwrext			Y_lwrtop			Y_lwrlow			Y_rtopleg			Y_ltopleg			Y_rkneefr			Y_rkneebk			Y_rkneeis			Y_lkneefr			Y_lknssbk			Y_lkneeis			Y_rankfr			Y_rankis			Y_rankbk			Y_lankfr			Y_lankbk			Y_lankis			Y_lhead			Y_lasi			D_rpsi			D_lpsi			D_fneck			D_bneck			D_fhead			D_rhead			D_lhead			D_rshld			D_relbtop			D_relbext			D_relblow			D_rwrext			D_rwrtop			D_rwrlow			D_lshld			D_lelbext			D_lelblow			D_lelbtop			D_lwrext			D_lwrtop			D_lwrlow			D_rtopleg			D_ltopleg			D_rkneefr			D_rkneebk			D_rkneeis			D_lkneefr			D_lknssbk			D_lkneeis			D_rankfr			D_rankis			D_rankbk			D_lankfr			D_lankbk			D_lankis			D_lasi			D_rasi			
		X1	Y1	Z1	X2	Y2	Z2	X3	Y3	Z3	X4	Y4	Z4	X5	Y5	Z5	X6	Y6	Z6	X7	Y7	Z7	X8	Y8	Z8	X9	Y9	Z9	X10	Y10	Z10	X11	Y11	Z11	X12	Y12	Z12	X13	Y13	Z13	X14	Y14	Z14	X15	Y15	Z15	X16	Y16	Z16	X17	Y17	Z17	X18	Y18	Z18	X19	Y19	Z19	X20	Y20	Z20	X21	Y21	Z21	X22	Y22	Z22	X23	Y23	Z23	X24	Y24	Z24	X25	Y25	Z25	X26	Y26	Z26	X27	Y27	Z27	X28	Y28	Z28	X29	Y29	Z29	X30	Y30	Z30	X31	Y31	Z31	X32	Y32	Z32	X33	Y33	Z33	X34	Y34	Z34	X35	Y35	Z35	X36	Y36	Z36	X37	Y37	Z37	X38	Y38	Z38	X39	Y39	Z39	X40	Y40	Z40	X41	Y41	Z41	X42	Y42	Z42	X43	Y43	Z43	X44	Y44	Z44	X45	Y45	Z45	X46	Y46	Z46	X47	Y47	Z47	X48	Y48	Z48	X49	Y49	Z49	X50	Y50	Z50	X51	Y51	Z51	X52	Y52	Z52	X53	Y53	Z53	X54	Y54	Z54	X55	Y55	Z55	X56	Y56	Z56	X57	Y57	Z57	X58	Y58	Z58	X59	Y59	Z59	X60	Y60	Z60	X61	Y61	Z61	X62	Y62	Z62	X63	Y63	Z63	X64	Y64	Z64	X65	Y65	Z65	X66	Y66	Z66	X67	Y67	Z67	X68	Y68	Z68	X69	Y69	Z69	X70	Y70	Z70	X71	Y71	Z71	X72	Y72	Z72	X73	Y73	Z73	X74	Y74	Z74	

98	12.717	-555.18227	1086.87157	-140.85996	-547.59789	1071.55701	-322.95502	-323.28072	1061.76720	-250.23232	-480.05760	1432.38403	-167.70889	-385.86185	1485.61127	-228.26372	-569.21486	1624.78760	-152.62499	-451.73088	1571.00922	-275.15717	-608.69499	1420.93506	-286.82556	-651.19186	1104.44824	-310.36587	-659.09409	1120.87173	-367.14870	-591.81602	1100.40184	-368.93124	-690.78003	841.78543	-308.52360	-722.46140	856.62361	-284.15945	-704.27383	868.28781	-244.68405	-247.20642	1379.41681	-113.58877	-181.44527	1071.71509	-183.50063	-235.22741	1061.88538	-207.08235	-222.49338	1075.20340	-136.98334	-233.68759	817.63710	-126.38433	-223.10125	826.54182	-84.03505	-263.80457	843.03566	-68.38196	-626.07006	915.19981	-280.91816	-288.89893	906.42014	-140.58786	-643.40988	409.66358	-267.91458	-623.82668	454.51824	-343.26271	-548.07537	417.19910	-260.77642	-332.40616	476.12041	-115.68853	-272.09726	495.35889	-211.35622	-391.66904	468.77689	-190.73328	-632.39716	140.08139	-326.62605	-562.04792	133.58493	-340.23819	-604.35162	137.29546	-393.30963	-274.64884	132.22618	-171.19669	-259.05207	130.15478	-239.08838	-331.71883	126.13675	-207.21643	-398.03215	1574.76471	-132.25453	-403.30837	1074.99001	-93.17398	-934.09691	1176.23070	593.16902	-1079.02122	1189.64539	490.03975	-916.55663	1616.52420	463.63274	-1004.82887	1655.84778	543.04424	-895.44060	1825.41718	357.96631	-917.28027	1802.22000	534.18297	-1043.58231	1798.67218	447.54349	-816.81923	1564.94598	597.74677	-789.85634	1194.11461	573.79028	-737.33902	1206.16966	614.47651	-802.09000	1190.50270	657.85789	-703.43193	919.50119	544.74651	-684.36462	934.18564	509.99935	-721.04584	942.90024	479.57962	-1152.59850	1559.47250	411.01982	-1160.96886	1188.71506	343.58120	-1129.53819	1167.56058	411.85417	-1098.10280	1196.55190	338.28079	-1105.65170	943.90701	295.74280	-1083.97499	963.02872	260.33381	-1042.91420	963.70979	285.32415	-824.87823	1038.34885	585.78888	-1102.27463	1032.92824	372.32368	-826.02173	558.13122	487.55947	-835.33127	561.68800	600.44762	-937.05177	548.01929	525.73223	-1008.93181	470.46459	380.89989	-1099.48891	518.91918	430.54733	-1012.18613	502.44072	493.80455	-833.89435	193.59785	554.08092	-909.63837	187.14890	537.59819	-883.80112	184.15607	619.46735	-1056.63559	162.56489	413.41694	-1076.47850	153.99313	490.52406	-993.27080	165.05268	448.87306	-991.35696	1192.81631	351.18248	-821.94176	1182.13440	465.79998 
99	12.733	-555.56976	1086.94183	-141.77112	-545.70587	1071.78307	-324.27525	-322.12845	1061.78543	-248.37986	-480.54230	1432.01462	-168.12027	-384.39411	1485.95947	-225.01469	-572.32525	1623.33755	-159.53530	-446.90079	1570.48279	-273.99841	-606.36322	1421.42502	-287.68063	-649.80232	1105.10361	-311.41293	-656.98074	1121.45630	-368.29800	-589.87488	1100.61302	-369.27143	-691.24870	842.94785	-308.48827	-722.95624	858.10913	-284.68981	-705.27534	869.95766	-244.93391	-247.56519	1378.99368	-109.93857	-181.11813	1071.62056	-180.93679	-234.59171	1061.95618	-205.34218	-222.41226	1074.61273	-134.71576	-232.68097	816.52908	-128.71901	-222.55527	824.73976	-86.03540	-263.11625	840.97252	-69.48760	-624.97135	915.47722	-282.64664	-289.60526	906.22894	-138.53137	-643.27507	409.81892	-268.66280	-623.33061	454.50169	-343.89389	-548.01117	417.14363	-261.09045	-332.64145	476.11233	-115.10493	-272.09499	495.36419	-210.44334	-391.88591	468.75397	-190.31752	-632.34840	140.14217	-326.83701	-562.15122	133.50669	-340.24635	-604.25465	137.21697	-393.45459	-274.88274	132.23853	-170.93006	-259.01978	130.20429	-238.89942	-332.01050	126.28503	-207.33988	-403.42766	1574.27353	-130.57512	-404.32220	1074.63699	-92.67863	-933.26721	1175.96413	593.21789	-1078.69408	1189.20532	490.78259	-915.83809	1616.38977	464.24427	-1004.42627	1655.76553	543.67962	-893.86276	1824.43680	358.55984	-917.51175	1802.35764	534.48505	-1042.92366	1798.66440	446.66916	-815.96733	1564.77020	597.60426	-789.06448	1194.07555	572.91649	-736.22513	1206.02356	613.30853	-799.98444	1190.22026	656.35757	-702.60979	919.80278	542.33955	-683.70621	934.45129	507.62543	-720.49431	943.26653	477.54871	-1152.64671	1559.45404	412.48215	-1161.81007	1188.80875	344.85973	-1130.04044	1167.54227	413.10795	-1098.95401	1196.59828	339.36348	-1106.99692	943.96042	296.74683	-1085.47958	962.79747	261.25784	-1044.35081	963.69965	285.78690	-824.52187	1038.16498	585.43785	-1102.40982	1033.09662	372.94113	-825.85991	557.96127	487.64523	-835.21072	561.60721	600.51891	-936.91628	547.95208	525.95562	-1008.98033	470.52879	380.90057	-1099.32373	518.98567	430.91228	-1011.97670	502.48379	493.89904	-833.83591	193.56018	554.14055	-909.49547	187.18143	537.66121	-883.79570	184.11509	619.60640	-1056.68015	162.64341	413.47847	-1076.40198	154.00649	490.61562	-993.24577	165.06268	448.85365	-991.55128	1192.88887	351.59641	-821.48682	1182.17346	465.24891 
100	12.750	-555.95688	1087.03011	-142.90068	-543.75275	1071.95457	-325.38708	-321.12617	1061.54221	-246.30754	-480.99705	1431.69342	-168.59074	-382.98702	1486.30890	-221.90845	-574.88499	1621.63101	-165.95438	-442.53532	1570.06668	-272.54837	-603.94161	1421.77979	-288.73890	-648.15140	1105.62691	-312.67065	-654.69376	1121.91299	-369.70551	-587.68024	1100.69679	-369.93393	-691.49223	844.09828	-308.68198	-723.44162	859.59183	-285.39587	-706.21529	871.64352	-245.41933	-248.20797	1378.60016	-105.90870	-180.77322	1071.64497	-177.87558	-234.01150	1062.18559	-203.01256	-223.37181	1073.41461	-132.19638	-231.42223	815.49797	-130.81219	-221.68520	822.96341	-88.06313	-263.81138	837.99835	-74.91466	-623.95374	915.71342	-284.26659	-289.84268	906.04324	-136.63787	-643.20801	409.93553	-269.30536	-622.81460	454.53854	-344.50733	-548.11626	417.07260	-261.13384	-333.38993	475.96073	-114.36661	-272.15809	495.39455	-209.36659	-392.18288	468.75496	-189.90980	-632.29889	140.16916	-327.02526	-562.10472	133.51029	-340.30319	-604.13956	137.13693	-393.57567	-275.14933	132.22188	-170.65502	-258.96227	130.27706	-238.73240	-332.10083	126.30187	-207.34028	-407.06146	1574.02481	-125.15409	-406.34907	1074.43733	-91.43274	-932.26715	1175.82191	593.24745	-1078.39851	1188.74237	491.52973	-915.29198	1616.21384	464.79889	-1004.08333	1655.67642	544.33495	-892.24495	1823.54095	358.86887	-917.58179	1802.48459	534.76395	-1042.25349	1798.61771	445.96493	-815.18288	1564.68674	597.55543	-788.16628	1194.06586	572.05360	-735.32097	1205.85312	612.29027	-799.80156	1190.14008	656.29929	-701.87302	920.00427	539.94343	-682.98943	934.78157	505.21030	-719.88556	943.64815	475.30102	-1152.65160	1559.43207	414.04507	-1162.64297	1188.77304	346.28391	-1130.50484	1167.54166	414.29958	-1099.88129	1196.53282	340.34794	-1108.15094	944.04564	297.58198	-1086.88316	962.91855	262.10314	-1045.46425	963.73848	286.51991	-823.85788	1037.88841	584.13013	-1102.28523	1033.15285	373.47919	-825.66177	557.80704	487.75627	-834.96284	561.58417	600.65937	-936.74454	547.94609	526.13434	-1008.92548	470.54207	380.95158	-1099.19983	519.00166	431.09493	-1011.67053	502.48989	493.85639	-833.75244	193.53252	554.16359	-909.40025	187.17051	537.72804	-883.73383	184.09218	619.70387	-1056.71173	162.65779	413.53550	-1076.33057	154.03033	490.69355	-993.19160	165.08383	448.79921	-991.81099	1192.94540	351.97552	-821.23215	1182.03606	464.76513 
101	12.767	-556.30463	1087.11266	-144.15319	-541.65337	1071.78078	-328.33588	-320.10586	1061.41563	-244.12886	-481.35139	1431.38824	-168.91582	-381.58909	1486.56540	-218.72749	-576.85017	1619.83139	-171.53355	-438.41957	1569.70901	-271.45336	-601.43391	1422.06406	-290.05497	-646.41747	1106.16867	-314.36779	-652.11929	1122.32178	-371.58451	-585.15656	1100.68420	-370.80482	-691.63841	845.26825	-309.02842	-723.82477	861.12076	-286.26083	-707.01584	873.24394	-246.21759	-249.23916	1378.16925	-101.47712	-180.43034	1071.72806	-174.19123	-233.13404	1062.44614	-200.41515	-223.80960	1072.65114	-129.17997	-229.85493	814.63638	-132.82786	-221.06190	821.24069	-89.67287	-263.27847	836.18210	-78.02969	-622.56386	915.72456	-286.11012	-290.69046	905.77408	-134.19492	-643.13522	410.02419	-269.87265	-622.34322	454.57596	-345.03872	-548.33111	416.91677	-261.05886	-334.81422	475.98595	-113.40010	-272.26849	495.50285	-208.18584	-392.46559	468.74485	-189.51654	-632.24537	140.22280	-327.10743	-562.07550	133.47484	-340.25898	-604.02168	137.07762	-393.64933	-275.26499	132.17328	-170.45115	-258.95309	130.32466	-238.57235	-332.24377	126.31336	-207.29988	-411.24931	1574.64981	-123.58835	-407.29866	1074.18320	-90.53986	-931.46690	1175.77698	593.25081	-1078.17406	1188.36044	492.28386	-914.71237	1616.05423	465.38605	-1003.77823	1655.64423	544.96986	-891.05118	1822.78427	359.15272	-917.45392	1802.61749	534.88819	-1041.50162	1798.58597	445.26867	-814.30565	1564.53934	597.23164	-787.39067	1194.03030	571.33293	-734.34952	1205.65430	611.18328	-799.43710	1190.15747	656.17798	-701.24496	920.13130	537.68047	-682.31796	935.10788	502.92912	-719.42215	944.06990	473.09097	-1152.72827	1559.38065	415.49328	-1163.42957	1188.80699	347.74242	-1130.93750	1167.47253	415.54920	-1100.67093	1196.50780	341.28502	-1109.29077	944.05922	298.46125	-1088.11546	963.04672	262.97699	-1046.59584	963.80211	287.28424	-823.32993	1038.09570	582.91199	-1102.23465	1033.23814	374.09840	-825.45677	557.67780	487.72625	-834.87198	561.49433	601.01685	-936.59164	548.15926	526.64410	-1008.84415	470.57632	380.80215	-1098.94730	518.95233	431.19457	-1011.39030	502.51740	493.81126	-833.67020	193.50971	554.18438	-909.33334	187.21060	537.81109	-883.52837	184.06015	619.72015	-1056.69350	162.67918	413.57239	-1076.18446	154.08041	490.77137	-993.16124	165.07093	448.75950	-992.05963	1193.01918	352.31873	-821.00143	1182.02698	464.36440 
